<svg width="24" height="24" viewBox="0 0 24 24" fill="none" xmlns="http://www.w3.org/2000/svg">
<path d="M10 3.5C10 2.67 10.67 2 11.5 2C12.33 2 13 2.67 13 3.5C13 4.33 12.33 5 11.5 5C10.67 5 10 4.33 10 3.5ZM22 8V11.5L20.97 11.85C20.8 13.06 19.76 14 18.5 14H18.42C18.28 14.68 17.95 15.29 17.5 15.78V22H15V17C14.92 17 14.84 17 14.75 17C14.54 17 14.33 16.97 14.13 16.94L9.69003 16.2L8.57003 18.21L9.32003 22H6.78003L6.00003 18.25C5.97003 17.95 6.00003 17.65 6.16003 17.39L7.18003 15.58C6.20003 15.03 5.53003 14 5.50003 12.81C5.46003 12.96 5.44003 13.18 5.47003 13.5C5.50003 13.94 5.61003 14.59 5.54003 15.31C5.50003 16.03 5.17003 16.77 4.75003 17.26C4.32003 17.75 3.85003 18.09 3.35003 18.35L2.65003 17.65C2.84003 17.18 3.03003 16.76 3.07003 16.37C3.13003 16 3.06003 15.7 2.95003 15.43L2.42003 14.3C2.21003 13.79 1.95003 13.05 2.00003 12.18C2.03003 11.33 2.50003 10.22 3.39003 9.61C4.29003 9 5.26003 8.91 6.05003 9.08C6.55003 9.18 7.06003 9.42 7.50003 9.76C7.87003 9.59 8.30003 9.5 8.75003 9.5H9.00003V8.11C9.00003 7.11 9.68003 6.19 10.66 6.03C11.92 5.82 13 6.79 13 8V9.5H14.5V9C14.5 6.79 16.29 5 18.5 5H22L21.11 6.34C21.65 6.7 22 7.31 22 8ZM20 11.2L18.96 9.54C18.83 9.33 18.5 9.42 18.5 9.67V13C19.33 13 20 12.33 20 11.5V11.2Z" fill="#67FFB3"/>
</svg>
