<svg width="34" height="34" viewBox="0 0 34 34" fill="none" xmlns="http://www.w3.org/2000/svg">
<path d="M15.555 5.94997C17.1042 5.94997 18.36 4.69412 18.36 3.14497C18.36 1.59581 17.1042 0.339966 15.555 0.339966C14.0058 0.339966 12.75 1.59581 12.75 3.14497C12.75 4.69412 14.0058 5.94997 15.555 5.94997Z" fill="#67FFB3"/>
<path d="M14.96 6.80005H12.92C11.0024 6.80005 9.52 7.96897 9.52 9.91921V18.36C9.52 19.72 11.56 19.72 11.56 18.36V10.2H12.24V31.96C12.24 32.7985 12.7622 33.32 13.6 33.32C14.4398 33.32 14.96 32.7985 14.96 31.96V6.80005ZM23.8 17L21.0684 9.95729C20.8311 8.37901 19.2372 6.80005 17.4182 6.80005H15.64V22.9725C15.98 22.9739 16.32 23.0235 16.32 23.12V31.96C16.32 32.6672 16.9436 33.32 17.68 33.32C18.4185 33.32 19.04 32.6666 19.04 31.96V23.12H21.6709C21.9171 23.12 22.3808 22.6753 22.3808 22.44C22.3808 22.3856 22.4006 21.807 22.3808 21.76L18.3627 10.7189L18.3396 10.6053C18.3396 10.4442 18.4749 10.3136 18.6436 10.3136C18.787 10.3136 18.9074 10.4095 18.9394 10.5373L21.6709 17.68C21.8525 18.0887 22.5991 18.36 23.0901 18.36C23.7463 18.36 23.8143 17.0714 23.8 17Z" fill="#67FFB3"/>
</svg>
