<svg width="34" height="34" viewBox="0 0 34 34" fill="none" xmlns="http://www.w3.org/2000/svg">
<path d="M17 2.83337C17.7515 2.83337 18.4721 3.13188 19.0035 3.66324C19.5348 4.19459 19.8333 4.91526 19.8333 5.66671C19.8333 6.41815 19.5348 7.13882 19.0035 7.67018C18.4721 8.20153 17.7515 8.50004 17 8.50004C16.2486 8.50004 15.5279 8.20153 14.9965 7.67018C14.4652 7.13882 14.1667 6.41815 14.1667 5.66671C14.1667 4.91526 14.4652 4.19459 14.9965 3.66324C15.5279 3.13188 16.2486 2.83337 17 2.83337ZM14.875 9.91671H19.125C19.8765 9.91671 20.5971 10.2152 21.1285 10.7466C21.6598 11.2779 21.9583 11.9986 21.9583 12.75V20.5417H19.8333V31.1667H14.1667V20.5417H12.0417V12.75C12.0417 11.9986 12.3402 11.2779 12.8715 10.7466C13.4029 10.2152 14.1236 9.91671 14.875 9.91671Z" fill="#67FFB3"/>
</svg>
