<svg width="34" height="34" viewBox="0 0 34 34" fill="none" xmlns="http://www.w3.org/2000/svg">
<path d="M27.0158 21.08L29.92 23.9842L21.335 32.5834H18.4167V29.665L27.0158 21.08ZM29.8067 18.6009C30.005 18.6009 30.1892 18.6859 30.345 18.8417L32.1583 20.655C32.47 20.9525 32.47 21.4484 32.1583 21.7459L30.7417 23.1625L27.8375 20.2584L29.2542 18.8417C29.41 18.6859 29.6083 18.6009 29.8067 18.6009ZM29.75 12.75H21.25V22.6667L18.4167 25.5V22.6667H15.5833V31.1667H12.75V12.75H4.25V9.91671H29.75V12.75ZM17 2.83337C18.5583 2.83337 19.8333 4.10837 19.8333 5.66671C19.8333 7.22504 18.5583 8.50004 17 8.50004C15.4417 8.50004 14.1667 7.22504 14.1667 5.66671C14.1667 4.10837 15.4417 2.83337 17 2.83337Z" fill="#67FFB3"/>
</svg>
