<svg width="34" height="34" viewBox="0 0 34 34" fill="none" xmlns="http://www.w3.org/2000/svg">
<path d="M20.0033 14.1667H26.9167V11.6167H21.7883L18.955 6.89916C18.53 6.19082 17.765 5.70916 16.8867 5.70916C16.6317 5.70916 16.405 5.75166 16.1783 5.82249L8.5 8.21666V15.5833H11.05V10.3842L14.0392 9.44916L8.5 31.1667H11.05L15.1158 19.6775L18.4167 24.0833V31.1667H20.9667V22.0858L17.4392 15.6542L18.4733 11.5883M19.8333 5.38333C21.25 5.38333 22.3833 4.24999 22.3833 2.83333C22.3833 1.41666 21.25 0.283325 19.8333 0.283325C18.4167 0.283325 17.2833 1.41666 17.2833 2.83333C17.2833 4.24999 18.4167 5.38333 19.8333 5.38333Z" fill="#67FFB3"/>
</svg>
