<svg width="34" height="34" viewBox="0 0 34 34" fill="none" xmlns="http://www.w3.org/2000/svg">
<path d="M24.0833 24.0834H21.25V32.5834H18.4167V24.0834H15.4133L13.2317 26.8175L16.5892 30.1609L14.5775 32.1725L11.2342 28.815C10.7383 28.3334 10.455 27.6675 10.4125 26.9734C10.37 26.2792 10.5825 25.585 11.0217 25.0467L11.7867 24.0834H9.91666L12.75 18.4167V14.1667C11.8717 14.8325 11.1633 15.6825 10.6675 16.66C10.1717 17.6517 9.91666 18.7284 9.91666 19.8334H7.08333C7.08333 17.2033 8.12812 14.681 9.98785 12.8212C11.8476 10.9615 14.3699 9.91671 17 9.91671C18.8842 9.91671 20.6833 9.16587 22.015 7.84837C23.3325 6.51671 24.0833 4.71754 24.0833 2.83337H26.9167C26.9167 4.70337 26.3783 6.54504 25.3725 8.11754C24.3711 9.70081 22.9418 10.9681 21.25 11.7725V18.4167L24.0833 24.0834ZM19.8333 5.66671C19.8333 6.23337 19.6633 6.77171 19.3517 7.23921C19.04 7.70671 18.6008 8.07504 18.0908 8.28754C17.5722 8.50098 17.0018 8.55568 16.452 8.44472C15.9023 8.33375 15.3978 8.06211 15.0025 7.66421C14.6058 7.26754 14.3367 6.77171 14.2233 6.21921C14.11 5.66671 14.1667 5.10004 14.3792 4.59004C14.5917 4.06587 14.96 3.62671 15.4275 3.31504C15.895 3.00337 16.4333 2.83337 17 2.83337C17.7508 2.83337 18.4733 3.13087 18.9975 3.66921C19.5358 4.19337 19.8333 4.91587 19.8333 5.66671Z" fill="#67FFB3"/>
</svg>
