<svg width="34" height="34" viewBox="0 0 34 34" fill="none" xmlns="http://www.w3.org/2000/svg">
<path d="M17 2.83337C24.8242 2.83337 31.1667 9.17579 31.1667 17C31.1667 18.03 31.0562 19.033 30.8479 20.0005L28.3234 17.4746C28.33 17.3188 28.3333 17.1606 28.3333 17C28.3326 14.5316 27.526 12.1309 26.0361 10.1628C24.5462 8.19472 22.4544 6.76687 20.0788 6.09629C17.7032 5.42571 15.1736 5.54906 12.8745 6.4476C10.5755 7.34614 8.63258 8.97073 7.34123 11.0744C6.04988 13.1782 5.48067 15.646 5.72011 18.1028C5.95955 20.5595 6.99455 22.871 8.6678 24.6858C10.341 26.5006 12.561 27.7194 14.9904 28.1571C17.4197 28.5949 19.9255 28.2275 22.1269 27.1108C22.346 27.4602 22.6072 27.7865 22.9103 28.0897C23.3382 28.519 23.817 28.8646 24.3284 29.1267C22.1184 30.4648 19.5835 31.1704 17 31.1667C9.17575 31.1667 2.83333 24.8243 2.83333 17C2.83333 9.17579 9.17575 2.83337 17 2.83337ZM26.9167 20.077L28.9198 22.0802C29.3098 22.47 29.5775 22.9651 29.6902 23.5049C29.8029 24.0446 29.7557 24.6055 29.5543 25.1188C29.353 25.6321 29.0062 26.0754 28.5566 26.3946C28.107 26.7137 27.574 26.8947 27.023 26.9154C26.472 26.9361 25.927 26.7955 25.4547 26.511C24.9824 26.2265 24.6034 25.8104 24.3641 25.3136C24.1248 24.8169 24.0357 24.2611 24.1076 23.7144C24.1795 23.1678 24.4094 22.654 24.769 22.236L24.9135 22.0802L26.9167 20.077ZM17 21.25C19.0768 21.25 20.9454 22.144 22.2417 23.5691L20.9029 24.7875C19.7837 24.3412 18.4422 24.0834 17 24.0834C15.5578 24.0834 14.2162 24.3426 13.0971 24.786L11.7583 23.5677C12.4224 22.8375 13.2316 22.2542 14.1343 21.8551C15.0369 21.4559 16.013 21.2499 17 21.25ZM12.0417 14.1667C12.6052 14.1667 13.1457 14.3906 13.5443 14.7891C13.9428 15.1876 14.1667 15.7281 14.1667 16.2917C14.1667 16.8553 13.9428 17.3958 13.5443 17.7943C13.1457 18.1928 12.6052 18.4167 12.0417 18.4167C11.4781 18.4167 10.9376 18.1928 10.5391 17.7943C10.1405 17.3958 9.91666 16.8553 9.91666 16.2917C9.91666 15.7281 10.1405 15.1876 10.5391 14.7891C10.9376 14.3906 11.4781 14.1667 12.0417 14.1667ZM21.9583 14.1667C22.5219 14.1667 23.0624 14.3906 23.4609 14.7891C23.8594 15.1876 24.0833 15.7281 24.0833 16.2917C24.0833 16.8553 23.8594 17.3958 23.4609 17.7943C23.0624 18.1928 22.5219 18.4167 21.9583 18.4167C21.3947 18.4167 20.8542 18.1928 20.4557 17.7943C20.0572 17.3958 19.8333 16.8553 19.8333 16.2917C19.8333 15.7281 20.0572 15.1876 20.4557 14.7891C20.8542 14.3906 21.3947 14.1667 21.9583 14.1667Z" fill="#67FFB3"/>
</svg>
